HIERARCHY
ROOT Hips
{
	OFFSET 0.00000 0.00000 0.00000
	CHANNELS 6 Xposition Yposition Zposition Zrotation Yrotation Xrotation 
	JOINT LHipJoint
	{
		OFFSET 0 0 0
		CHANNELS 3 Zrotation Yrotation Xrotation
		JOINT LeftUpLeg
		{
			OFFSET 1.64549 -1.70879 0.84566
			CHANNELS 3 Zrotation Yrotation Xrotation
			JOINT LeftLeg
			{
				OFFSET 2.24963 -6.18082 0.00000
				CHANNELS 3 Zrotation Yrotation Xrotation
				JOINT LeftFoot
				{
					OFFSET 2.71775 -7.46697 0.00000
					CHANNELS 3 Zrotation Yrotation Xrotation
					JOINT LeftToeBase
					{
						OFFSET 0.18768 -0.51564 2.24737
						CHANNELS 3 Zrotation Yrotation Xrotation
						End Site
						{
							OFFSET 0.00000 -0.00000 1.15935
						}
					}
				}
			}
		}
	}
	JOINT RHipJoint
	{
		OFFSET 0 0 0
		CHANNELS 3 Zrotation Yrotation Xrotation
		JOINT RightUpLeg
		{
			OFFSET -1.58830 -1.70879 0.84566
			CHANNELS 3 Zrotation Yrotation Xrotation
			JOINT RightLeg
			{
				OFFSET -2.25006 -6.18201 0.00000
				CHANNELS 3 Zrotation Yrotation Xrotation
				JOINT RightFoot
				{
					OFFSET -2.72829 -7.49593 0.00000
					CHANNELS 3 Zrotation Yrotation Xrotation
					JOINT RightToeBase
					{
						OFFSET -0.21541 -0.59185 2.10643
						CHANNELS 3 Zrotation Yrotation Xrotation
						End Site
						{
							OFFSET -0.00000 -0.00000 1.09838
						}
					}
				}
			}
		}
	}
	JOINT LowerBack
	{
		OFFSET 0 0 0
		CHANNELS 3 Zrotation Yrotation Xrotation
		JOINT Spine
		{
			OFFSET 0.03142 2.10496 -0.11038
			CHANNELS 3 Zrotation Yrotation Xrotation
			JOINT Spine1
			{
				OFFSET -0.01863 2.10897 -0.06956
				CHANNELS 3 Zrotation Yrotation Xrotation
				JOINT Neck
				{
					OFFSET 0 0 0
					CHANNELS 3 Zrotation Yrotation Xrotation
					JOINT Neck1
					{
						OFFSET -0.02267 1.73238 0.00451
						CHANNELS 3 Zrotation Yrotation Xrotation
						JOINT Head
						{
							OFFSET -0.05808 1.54724 -0.61749
							CHANNELS 3 Zrotation Yrotation Xrotation
							End Site
							{
								OFFSET -0.01396 1.71468 -0.21082
							}
						}
					}
				}
				JOINT LeftShoulder
				{
					OFFSET 0 0 0
					CHANNELS 3 Zrotation Yrotation Xrotation
					JOINT LeftArm
					{
						OFFSET 3.44898 0.50298 0.21920
						CHANNELS 3 Zrotation Yrotation Xrotation
						JOINT LeftForeArm
						{
							OFFSET 5.41917 -0.00000 -0.00000
							CHANNELS 3 Zrotation Yrotation Xrotation
							JOINT LeftHand
							{
								OFFSET 2.44373 -0.00000 0.00000
								CHANNELS 3 Zrotation Yrotation Xrotation
								JOINT LeftFingerBase
								{
									OFFSET 0 0 0
									CHANNELS 3 Zrotation Yrotation Xrotation
									JOINT LeftHandIndex1
									{
										OFFSET 0.72750 -0.00000 0.00000
										CHANNELS 3 Zrotation Yrotation Xrotation
										End Site
										{
											OFFSET 0.58653 -0.00000 0.00000
										}
									}
								}
								JOINT LThumb
								{
									OFFSET 0 0 0
									CHANNELS 3 Zrotation Yrotation Xrotation
									End Site
									{
										OFFSET 0.59549 -0.00000 0.59549
									}
								}
							}
						}
					}
				}
				JOINT RightShoulder
				{
					OFFSET 0 0 0
					CHANNELS 3 Zrotation Yrotation Xrotation
					JOINT RightArm
					{
						OFFSET -3.23015 0.55830 0.31051
						CHANNELS 3 Zrotation Yrotation Xrotation
						JOINT RightForeArm
						{
							OFFSET -5.58976 -0.00010 0.00014
							CHANNELS 3 Zrotation Yrotation Xrotation
							JOINT RightHand
							{
								OFFSET -2.48060 -0.00000 0.00000
								CHANNELS 3 Zrotation Yrotation Xrotation
								JOINT RightFingerBase
								{
									OFFSET 0 0 0
									CHANNELS 3 Zrotation Yrotation Xrotation
									JOINT RightHandIndex1
									{
										OFFSET -0.81601 -0.00000 0.00000
										CHANNELS 3 Zrotation Yrotation Xrotation
										End Site
										{
											OFFSET -0.65789 -0.00000 0.00000
										}
									}
								}
								JOINT RThumb
								{
									OFFSET 0 0 0
									CHANNELS 3 Zrotation Yrotation Xrotation
									End Site
									{
										OFFSET -0.66793 -0.00000 0.66793
									}
								}
							}
						}
					}
				}
			}
		}
	}
}
MOTION
Frames: 7
Frame Time: 0.0188679
0.00 0.00 0.00 -200.5350 -70.2427 -499.4770 0.0000 0.0000 0.0000 7.7539 -13.4422 -8.2029 1.0428 6.4944 18.2259 10.1100 -33.6564 -61.0979 6.7338 15.1036 47.8602 0.0000 0.0000 0.0000 16.7082 15.1324 -17.5141 -0.7898 -5.6730 15.8386 0.1294 -18.9129 12.1372 -4.4568 -12.7447 38.4201 -7.5264 -1.1667 -10.2235 -6.5163 -2.7334 -11.8820 -2.7792 -1.6482 -7.0278 -11.3993 -12.9430 -5.3685 9.5724 -22.8430 31.7410 1.9860 -11.2159 14.2775 0.0000 -0.0000 0.0000 -1.9998 -14.3372 -4.9511 10.8205 -18.0125 -1.7200 -0.0000 -0.0000 36.0406 10.9667 26.5538 4.9509 -7.1250 0.0000 -0.0000 -20.4966 55.7593 -5.5795 0.0000 -0.0000 0.0000 -1.9657 13.0441 3.7895 -26.3729 37.5746 -9.1141 0.0000 -0.0000 -25.0025 -2.0757 16.5997 -0.5932 7.1250 -0.0000 -0.0000 17.0110 -13.8601 13.0401
0.00 0.00 0.00 -190.6750 -49.6019 -510.3060 0.0000 0.0000 0.0000 6.9946 -24.1697 -7.2870 1.5257 7.7990 22.1052 11.4823 -33.1595 -65.2376 7.0664 15.3876 49.1250 0.0000 0.0000 0.0000 20.2463 2.9296 -29.0837 -1.7087 -8.2309 23.4177 0.6706 -15.6015 0.8514 -1.5115 -7.7643 22.0003 -8.2369 -1.0136 -9.3976 -5.8443 -2.8649 -12.0180 -1.6275 -1.7240 -7.6046 -8.8121 -9.9831 -8.7330 8.7299 -19.1877 33.7378 1.6917 -9.4135 14.9542 0.0000 0.0000 0.0000 -0.4267 -10.6149 1.7026 10.4035 -17.3682 -1.5933 -0.0000 -0.0000 33.7792 13.1757 23.9494 5.4284 -7.1250 0.0000 -0.0000 -16.8393 53.7058 -3.6857 0.0000 0.0000 0.0000 3.5953 13.1062 4.7534 -22.4366 33.4669 -6.8250 0.0000 -0.0000 -20.8011 -4.0654 11.0424 -0.7799 7.1250 -0.0000 -0.0000 16.1104 -19.1216 10.3595
0.00 0.00 0.00 -187.4850 -38.6259 -512.2340 0.0000 0.0000 0.0000 8.0184 -26.5872 -9.3609 2.0595 8.9889 25.7606 10.7596 -34.9938 -63.2872 6.9002 15.2473 48.4960 0.0000 0.0000 0.0000 28.7779 -4.6426 -38.7825 -2.4816 -9.8044 28.3456 0.9142 -18.2038 -14.7702 -0.8840 -5.9934 16.7654 -6.8912 -0.6697 -9.7613 -5.5707 -2.5922 -12.1641 -2.0662 -1.7590 -7.5723 -7.3681 -8.3059 -10.6254 9.5080 -17.1188 33.2511 2.0488 -8.2331 14.8295 -0.0000 0.0000 0.0000 -0.7179 -10.6003 2.2134 9.8289 -16.4715 -1.4261 -0.0000 -0.0000 36.9110 11.6043 27.7407 5.4599 -7.1250 0.0000 -0.0000 -20.6173 56.9972 -6.2418 -0.0000 0.0000 0.0000 8.7765 10.5341 3.8697 -21.9550 32.9262 -6.5614 0.0000 -0.0000 -20.9658 -6.8488 9.9754 -1.1919 7.1250 -0.0000 -0.0000 14.2730 -20.0730 8.7807
0.00 0.00 0.00 -186.0520 -14.2108 -514.6510 0.0000 0.0000 0.0000 4.4037 -22.7110 -7.3528 1.6804 8.1660 23.2193 12.9257 -26.7984 -69.1074 6.9366 15.2783 48.6343 0.0000 0.0000 0.0000 27.8709 7.8189 -38.2080 -3.7532 -11.8246 35.1143 -2.5760 -17.1377 -40.1501 -3.5219 -11.4954 33.9696 -7.5239 -0.1126 -8.1506 -5.0491 -2.3089 -12.0976 -1.0818 -1.6583 -8.3970 -5.3437 -3.8120 -13.9106 10.2594 -10.9359 32.7820 3.0015 -5.1897 14.5217 0.0000 0.0000 0.0000 -10.8342 -12.4299 -15.2426 8.9183 -15.0302 -1.1788 -0.0000 -0.0000 53.8646 12.4839 23.6879 5.0830 -7.1250 0.0000 -0.0000 -17.3868 53.3291 -3.6487 0.0000 0.0000 0.0000 21.0790 7.7898 -0.9209 -18.4704 28.7553 -4.7734 0.0000 -0.0000 -12.9931 -12.5440 15.6271 -3.4300 7.1250 -0.0000 -0.0000 10.1521 -14.1656 7.4795
0.00 0.00 0.00 -182.2260 -5.2769 -516.3360 0.0000 0.0000 0.0000 6.9303 -12.4633 -14.0641 2.4830 9.8069 28.3536 12.5137 -9.4589 -67.9049 6.4994 14.8954 46.9546 0.0000 0.0000 0.0000 27.4340 17.6050 -41.8361 -6.4121 -14.8161 46.6139 -2.9350 -16.2905 -41.1613 -3.4824 -11.4377 33.7708 -2.6572 0.2390 -5.7380 -3.7860 -1.8116 -11.9590 -2.3779 -1.6676 -9.5724 -5.0132 -1.6769 -15.8943 10.3012 -7.7289 33.0086 3.5064 -3.6911 14.6932 0.0000 -0.0000 0.0000 -18.1746 -12.3436 -9.2948 9.9352 -16.6381 -1.4563 -0.0000 -0.0000 42.9714 8.8407 30.6016 4.5271 -7.1250 0.0000 -0.0000 -25.5356 59.0130 -9.1155 0.0000 -0.0000 0.0000 26.1688 7.7193 -3.4202 -15.2697 24.5205 -3.3371 0.0000 -0.0000 -7.4124 -11.8352 16.6089 -3.4278 7.1250 -0.0000 -0.0000 10.6209 -13.2403 8.0485
0.00 0.00 0.00 -177.9420 4.0792 -518.8550 0.0000 0.0000 0.0000 7.8474 1.9926 -21.1831 3.1841 10.9873 32.2372 8.8229 11.7706 -60.2333 5.2696 13.6811 41.9749 0.0000 0.0000 0.0000 30.2603 20.4464 -39.9030 -7.4302 -15.6837 50.4834 -2.7067 -13.2073 -37.9013 -2.6963 -10.1864 29.5823 3.8372 -1.5967 -4.0459 -2.3258 -0.9665 -10.7426 -4.6777 -0.3751 -9.2595 -2.9692 -2.2819 -16.6712 7.6968 -2.6849 33.1962 3.4465 0.4485 14.3488 0.0000 -0.0000 0.0000 -25.0003 -12.6130 -5.7855 9.3582 -15.7295 -1.2955 -0.0000 -0.0000 41.3116 3.5551 28.9611 1.7231 -7.1250 0.0000 -0.0000 -29.4580 56.4443 -8.7977 0.0000 -0.0000 0.0000 30.2443 5.7938 -11.0126 -10.5892 17.6559 -1.6492 0.0000 0.0000 5.7648 -2.1995 10.7208 -0.4094 7.1250 -0.0000 -0.0000 17.4153 -19.4746 11.1350
0.00 0.00 0.00 -175.4860 7.8937 -519.3980 0.0000 0.0000 0.0000 7.5910 8.3111 -32.1812 4.6317 12.9567 39.2065 6.1540 17.5664 -54.1765 4.2484 12.4838 37.4656 0.0000 0.0000 0.0000 32.3182 21.0681 -37.9693 -7.0930 -15.4097 49.2253 -2.6204 -10.9715 -35.9804 -2.8329 -10.4196 30.3464 7.2443 -2.2790 -3.0259 -1.0423 -1.8113 -10.7162 -5.1445 -1.1063 -10.1023 -3.6552 -0.9526 -15.3206 7.0198 -0.3775 32.8675 3.6025 1.1882 13.7155 0.0000 -0.0000 0.0000 -29.1142 -16.2816 -9.9833 8.6018 -14.5236 -1.0981 -0.0000 -0.0000 45.6544 -1.0910 30.9772 -0.5616 -7.1250 0.0000 -0.0000 -35.5794 57.1798 -11.6048 0.0000 -0.0000 0.0000 29.3269 3.9084 -37.0136 -6.3949 10.9192 -0.6118 0.0000 0.0000 33.8812 0.2389 5.6042 0.0233 7.1250 -0.0000 -0.0000 19.7549 -24.3396 10.4665
